<svg width="70" height="63" viewBox="0 0 70 63" fill="none" xmlns="http://www.w3.org/2000/svg">
<path d="M31.5314 1.74943C29.8486 3.33655 29.6714 6.59895 31.1771 8.0979C32.5057 9.42049 36.58 9.42049 37.9086 8.0979C40.3886 5.62905 38.0857 0.338663 34.5428 0.338663C33.6571 0.338663 32.24 0.955874 31.5314 1.74943Z" fill="url(#paint0_linear_27_416)"/>
<path d="M31.8857 12.4184C31.8857 13.2119 30.38 13.5646 26.66 13.5646C20.7257 13.5646 18.6 14.0936 18.6 15.7689C18.6 17.4442 20.7257 17.9733 26.66 17.9733H31.8857V36.4896V55.006H27.9C24.4457 55.006 23.8257 55.2705 22.5857 57.6512C21.3457 60.12 20.8143 60.2964 16.3857 60.2964C13.7286 60.2964 11.5143 60.649 11.5143 61.1781C11.5143 61.7071 19.7514 62.0598 34.5429 62.0598C49.3343 62.0598 57.5714 61.7071 57.5714 61.1781C57.5714 60.649 55.4457 60.2964 52.9657 60.2964C48.7143 60.2964 48.0943 60.0318 46.7657 57.6512C45.4371 55.3587 44.8171 55.006 41.1857 55.006H37.2V36.4896V17.9733H41.8943C47.6514 17.9733 50.4857 17.1797 50.4857 15.7689C50.4857 14.4463 46.5886 13.5646 41.0971 13.5646C38.44 13.5646 37.2 13.2119 37.2 12.4184C37.2 11.713 36.1371 11.1839 34.5429 11.1839C32.9486 11.1839 31.8857 11.713 31.8857 12.4184Z" fill="url(#paint1_linear_27_416)"/>
<path d="M10.9829 13.9172C10.0086 16.3861 11.0714 18.4141 13.1971 18.4141C16.0314 18.4141 17.5371 15.9452 16.0314 14.0936C14.5257 12.3301 11.6029 12.2419 10.9829 13.9172Z" fill="url(#paint2_linear_27_416)"/>
<path d="M53.4971 13.9172C52.5229 16.3861 53.5857 18.4141 55.7114 18.4141C58.5457 18.4141 60.0514 15.9452 58.5457 14.0936C57.04 12.3301 54.1171 12.2419 53.4971 13.9172Z" fill="url(#paint3_linear_27_416)"/>
<path d="M6.37722 27.3195C4.25151 31.0228 2.83436 34.2852 3.10008 34.5497C3.80865 35.2551 5.40294 33.0508 9.56579 25.7324C11.4258 22.47 12.1344 20.6184 11.3372 20.6184C10.7172 20.6184 8.50293 23.6163 6.37722 27.3195Z" fill="url(#paint4_linear_27_416)"/>
<path d="M15.7658 23.44C16.7401 25.0272 18.6001 28.2014 19.9286 30.4939C21.2572 32.8746 22.9401 34.7262 23.6486 34.7262C24.7115 34.7262 24.6229 34.1972 23.2058 31.8165C22.2315 30.3175 20.3715 27.1433 19.0429 24.7626C17.7143 22.4701 16.0315 20.6185 15.3229 20.6185C14.2601 20.6185 14.3486 21.1475 15.7658 23.44Z" fill="url(#paint5_linear_27_416)"/>
<path d="M48.8914 27.3195C46.7657 31.0228 45.3485 34.2852 45.6142 34.5497C46.3228 35.2551 47.9171 33.0508 52.08 25.7324C53.94 22.47 54.6485 20.6184 53.8514 20.6184C53.2314 20.6184 51.0171 23.6163 48.8914 27.3195Z" fill="url(#paint6_linear_27_416)"/>
<path d="M58.2801 23.44C59.2543 25.0272 61.1143 28.2014 62.4429 30.4939C63.7715 32.8746 65.4543 34.7262 66.1629 34.7262C67.2258 34.7262 67.1372 34.1972 65.7201 31.8165C64.7458 30.3175 62.8858 27.1433 61.5572 24.7626C60.2286 22.4701 58.5458 20.6185 57.8372 20.6185C56.7743 20.6185 56.8629 21.1475 58.2801 23.44Z" fill="url(#paint7_linear_27_416)"/>
<path d="M0 38.1649C0 39.5756 4.51714 44.4252 7.17428 45.7478C10.4514 47.5112 16.2971 47.4231 20.0171 45.6596C23.0286 44.2488 26.5714 40.281 26.5714 38.3412C26.5714 37.724 22.32 37.3713 13.2857 37.3713C5.75714 37.3713 0 37.724 0 38.1649Z" fill="url(#paint8_linear_27_416)"/>
<path d="M42.5143 38.1649C42.5143 39.5756 47.0314 44.4252 49.6886 45.7478C52.9657 47.5112 58.8114 47.4231 62.5314 45.6596C65.5429 44.2488 69.0857 40.281 69.0857 38.3412C69.0857 37.724 64.8343 37.3713 55.8 37.3713C48.2714 37.3713 42.5143 37.724 42.5143 38.1649Z" fill="url(#paint9_linear_27_416)"/>
<defs>
<linearGradient id="paint0_linear_27_416" x1="34.5426" y1="12.7755" x2="34.6872" y2="-8.93452" gradientUnits="userSpaceOnUse">
<stop stop-color="#DC9A56"/>
<stop offset="1" stop-color="#DFD2C3"/>
</linearGradient>
<linearGradient id="paint1_linear_27_416" x1="34.5143" y1="83.4868" x2="35.4477" y2="-42.7254" gradientUnits="userSpaceOnUse">
<stop stop-color="#DC9A56"/>
<stop offset="1" stop-color="#DFD2C3"/>
</linearGradient>
<linearGradient id="paint2_linear_27_416" x1="13.6185" y1="20.8147" x2="13.7083" y2="6.67381" gradientUnits="userSpaceOnUse">
<stop stop-color="#DC9A56"/>
<stop offset="1" stop-color="#DFD2C3"/>
</linearGradient>
<linearGradient id="paint3_linear_27_416" x1="56.1327" y1="20.8147" x2="56.2226" y2="6.67381" gradientUnits="userSpaceOnUse">
<stop stop-color="#DC9A56"/>
<stop offset="1" stop-color="#DFD2C3"/>
</linearGradient>
<linearGradient id="paint4_linear_27_416" x1="7.35904" y1="40.5941" x2="7.7409" y2="5.72666" gradientUnits="userSpaceOnUse">
<stop stop-color="#DC9A56"/>
<stop offset="1" stop-color="#DFD2C3"/>
</linearGradient>
<linearGradient id="paint5_linear_27_416" x1="19.4797" y1="40.6678" x2="19.8182" y2="5.671" gradientUnits="userSpaceOnUse">
<stop stop-color="#DC9A56"/>
<stop offset="1" stop-color="#DFD2C3"/>
</linearGradient>
<linearGradient id="paint6_linear_27_416" x1="49.8732" y1="40.5941" x2="50.2551" y2="5.72666" gradientUnits="userSpaceOnUse">
<stop stop-color="#DC9A56"/>
<stop offset="1" stop-color="#DFD2C3"/>
</linearGradient>
<linearGradient id="paint7_linear_27_416" x1="61.994" y1="40.6678" x2="62.3325" y2="5.671" gradientUnits="userSpaceOnUse">
<stop stop-color="#DC9A56"/>
<stop offset="1" stop-color="#DFD2C3"/>
</linearGradient>
<linearGradient id="paint8_linear_27_416" x1="13.2692" y1="51.0938" x2="13.3275" y2="27.1386" gradientUnits="userSpaceOnUse">
<stop stop-color="#DC9A56"/>
<stop offset="1" stop-color="#DFD2C3"/>
</linearGradient>
<linearGradient id="paint9_linear_27_416" x1="55.7835" y1="51.0938" x2="55.8418" y2="27.1386" gradientUnits="userSpaceOnUse">
<stop stop-color="#DC9A56"/>
<stop offset="1" stop-color="#DFD2C3"/>
</linearGradient>
</defs>
</svg>
