<svg width="46" height="46" viewBox="0 0 46 46" fill="none" xmlns="http://www.w3.org/2000/svg">
<path d="M18.6667 12.5C18.6667 11.4458 19.042 10.5434 19.7927 9.79271C20.5434 9.04201 21.4458 8.66667 22.5 8.66667C23.5542 8.66667 24.4566 9.04201 25.2073 9.79271C25.958 10.5434 26.3333 11.4458 26.3333 12.5C26.3333 13.5542 25.958 14.4566 25.2073 15.2073C24.4566 15.958 23.5542 16.3333 22.5 16.3333C21.4458 16.3333 20.5434 15.958 19.7927 15.2073C19.042 14.4566 18.6667 13.5542 18.6667 12.5ZM22.5 45.0833L13.875 36.4583L16.75 32.625L13.875 28.7917L16.75 24.7188V22.4667C15.025 21.4444 13.6354 20.0628 12.5812 18.3219C11.5271 16.5809 11 14.6403 11 12.5C11 9.30556 12.1181 6.59028 14.3542 4.35417C16.5903 2.11806 19.3056 1 22.5 1C25.6944 1 28.4097 2.11806 30.6458 4.35417C32.8819 6.59028 34 9.30556 34 12.5C34 14.6403 33.4729 16.5809 32.4187 18.3219C31.3646 20.0628 29.975 21.4444 28.25 22.4667V39.3333L22.5 45.0833ZM14.8333 12.5C14.8333 14.2889 15.3764 15.8622 16.4625 17.2198C17.5486 18.5774 18.9222 19.4799 20.5833 19.9271V25.9167L18.6187 28.6958L21.5417 32.625L18.9062 36.0271L22.5 39.6208L24.4167 37.7042V19.9271C26.0778 19.4799 27.4514 18.5774 28.5375 17.2198C29.6236 15.8622 30.1667 14.2889 30.1667 12.5C30.1667 10.3917 29.416 8.58681 27.9146 7.08542C26.4132 5.58403 24.6083 4.83333 22.5 4.83333C20.3917 4.83333 18.5868 5.58403 17.0854 7.08542C15.584 8.58681 14.8333 10.3917 14.8333 12.5Z" fill="url(#paint0_linear_48_798)"/>
<defs>
<linearGradient id="paint0_linear_48_798" x1="22.4857" y1="-17.5662" x2="23.8889" y2="91.7831" gradientUnits="userSpaceOnUse">
<stop stop-color="#DC9A56"/>
<stop offset="1" stop-color="#DFD2C3"/>
</linearGradient>
</defs>
</svg>
