<svg width="46" height="46" viewBox="0 0 46 46" fill="none" xmlns="http://www.w3.org/2000/svg">
<path d="M16.4834 43.125L12.8417 36.9917L5.94175 35.4583L6.61258 28.3667L1.91675 23L6.61258 17.6333L5.94175 10.5417L12.8417 9.00833L16.4834 2.875L23.0001 5.65417L29.5168 2.875L33.1584 9.00833L40.0584 10.5417L39.3876 17.6333L44.0834 23L39.3876 28.3667L40.0584 35.4583L33.1584 36.9917L29.5168 43.125L23.0001 40.3458L16.4834 43.125ZM18.1126 38.2375L23.0001 36.1292L27.9834 38.2375L30.6667 33.6375L35.9376 32.3917L35.4584 27.025L39.0042 23L35.4584 18.8792L35.9376 13.5125L30.6667 12.3625L27.8876 7.7625L23.0001 9.87083L18.0167 7.7625L15.3334 12.3625L10.0626 13.5125L10.5417 18.8792L6.99591 23L10.5417 27.025L10.0626 32.4875L15.3334 33.6375L18.1126 38.2375ZM20.9876 29.8042L31.8167 18.975L29.1334 16.1958L20.9876 24.3417L16.8667 20.3167L14.1834 23L20.9876 29.8042Z" fill="url(#paint0_linear_48_789)"/>
<defs>
<linearGradient id="paint0_linear_48_789" x1="22.9739" y1="-14.0768" x2="23.612" y2="85.7763" gradientUnits="userSpaceOnUse">
<stop stop-color="#DC9A56"/>
<stop offset="1" stop-color="#DFD2C3"/>
</linearGradient>
</defs>
</svg>
