<svg width="44" height="42" viewBox="0 0 44 42" fill="none" xmlns="http://www.w3.org/2000/svg">
<path d="M15.4833 41.125L11.8416 34.9917L4.94163 33.4583L5.61246 26.3667L0.916626 21L5.61246 15.6333L4.94163 8.54167L11.8416 7.00833L15.4833 0.875L22 3.65417L28.5166 0.875L32.1583 7.00833L39.0583 8.54167L38.3875 15.6333L43.0833 21L38.3875 26.3667L39.0583 33.4583L32.1583 34.9917L28.5166 41.125L22 38.3458L15.4833 41.125ZM17.1125 36.2375L22 34.1292L26.9833 36.2375L29.6666 31.6375L34.9375 30.3917L34.4583 25.025L38.0041 21L34.4583 16.8792L34.9375 11.5125L29.6666 10.3625L26.8875 5.7625L22 7.87083L17.0166 5.7625L14.3333 10.3625L9.06246 11.5125L9.54163 16.8792L5.99579 21L9.54163 25.025L9.06246 30.4875L14.3333 31.6375L17.1125 36.2375ZM19.9875 27.8042L30.8166 16.975L28.1333 14.1958L19.9875 22.3417L15.8666 18.3167L13.1833 21L19.9875 27.8042Z" fill="url(#paint0_diamond_42_602)"/>
<defs>
<radialGradient id="paint0_diamond_42_602" cx="0" cy="0" r="1" gradientUnits="userSpaceOnUse" gradientTransform="translate(22.279 33.8498) rotate(89.6498) scale(49.9275 52.3051)">
<stop stop-color="#DC9A56"/>
<stop offset="1" stop-color="#DFD2C3"/>
</radialGradient>
</defs>
</svg>
