<svg width="36" height="38" viewBox="0 0 36 38" fill="none" xmlns="http://www.w3.org/2000/svg">
<path d="M12.25 37.25V27.6666C10.2694 27.5069 8.32882 27.2833 6.42812 26.9958C4.52743 26.7083 2.63472 26.293 0.75 25.75L1.70833 21.9166C4.35972 22.6514 7.04306 23.1545 9.75833 23.426C12.4736 23.6976 15.2208 23.8333 18 23.8333C20.7472 23.8333 23.4785 23.6976 26.1937 23.426C28.909 23.1545 31.6083 22.6514 34.2917 21.9166L35.25 25.75C33.3333 26.293 31.4247 26.7083 29.524 26.9958C27.6233 27.2833 25.6986 27.5069 23.75 27.6666V37.25H12.25ZM18 21.9166C16.9139 21.9166 16.0035 21.5493 15.2687 20.8146C14.534 20.0798 14.1667 19.1694 14.1667 18.0833C14.1667 17.0291 14.534 16.1267 15.2687 15.376C16.0035 14.6253 16.9139 14.25 18 14.25C19.0542 14.25 19.9566 14.6253 20.7073 15.376C21.458 16.1267 21.8333 17.0291 21.8333 18.0833C21.8333 19.1694 21.458 20.0798 20.7073 20.8146C19.9566 21.5493 19.0542 21.9166 18 21.9166ZM3.625 16.1666C2.79444 16.1666 2.10764 15.8951 1.56458 15.3521C1.02153 14.809 0.75 14.1222 0.75 13.2916C0.75 12.493 1.02153 11.8142 1.56458 11.2552C2.10764 10.6962 2.79444 10.4166 3.625 10.4166C4.42361 10.4166 5.10243 10.6962 5.66146 11.2552C6.22049 11.8142 6.5 12.493 6.5 13.2916C6.5 14.1222 6.22049 14.809 5.66146 15.3521C5.10243 15.8951 4.42361 16.1666 3.625 16.1666ZM32.375 16.1666C31.5444 16.1666 30.8576 15.8951 30.3146 15.3521C29.7715 14.809 29.5 14.1222 29.5 13.2916C29.5 12.493 29.7715 11.8142 30.3146 11.2552C30.8576 10.6962 31.5444 10.4166 32.375 10.4166C33.1736 10.4166 33.8524 10.6962 34.4115 11.2552C34.9705 11.8142 35.25 12.493 35.25 13.2916C35.25 14.1222 34.9705 14.809 34.4115 15.3521C33.8524 15.8951 33.1736 16.1666 32.375 16.1666ZM8.89583 8.97915C8.06528 8.97915 7.37847 8.70762 6.83542 8.16456C6.29236 7.62151 6.02083 6.9347 6.02083 6.10415C6.02083 5.30554 6.29236 4.62672 6.83542 4.06769C7.37847 3.50866 8.06528 3.22915 8.89583 3.22915C9.69444 3.22915 10.3733 3.50866 10.9323 4.06769C11.4913 4.62672 11.7708 5.30554 11.7708 6.10415C11.7708 6.9347 11.4913 7.62151 10.9323 8.16456C10.3733 8.70762 9.69444 8.97915 8.89583 8.97915ZM27.1042 8.97915C26.2736 8.97915 25.5868 8.70762 25.0437 8.16456C24.5007 7.62151 24.2292 6.9347 24.2292 6.10415C24.2292 5.30554 24.5007 4.62672 25.0437 4.06769C25.5868 3.50866 26.2736 3.22915 27.1042 3.22915C27.9028 3.22915 28.5816 3.50866 29.1406 4.06769C29.6997 4.62672 29.9792 5.30554 29.9792 6.10415C29.9792 6.9347 29.6997 7.62151 29.1406 8.16456C28.5816 8.70762 27.9028 8.97915 27.1042 8.97915ZM18 6.58331C17.1694 6.58331 16.4826 6.31179 15.9396 5.76873C15.3965 5.22567 15.125 4.53887 15.125 3.70831C15.125 2.9097 15.3965 2.23088 15.9396 1.67185C16.4826 1.11283 17.1694 0.833313 18 0.833313C18.7986 0.833313 19.4774 1.11283 20.0365 1.67185C20.5955 2.23088 20.875 2.9097 20.875 3.70831C20.875 4.53887 20.5955 5.22567 20.0365 5.76873C19.4774 6.31179 18.7986 6.58331 18 6.58331Z" fill="#CCA378"/>
</svg>
