<svg width="24" height="45" viewBox="0 0 24 45" fill="none" xmlns="http://www.w3.org/2000/svg">
<path d="M8.12504 12.4167C8.12504 11.3625 8.50039 10.4601 9.25108 9.70936C10.0018 8.95867 10.9042 8.58332 11.9584 8.58332C13.0125 8.58332 13.915 8.95867 14.6657 9.70936C15.4164 10.4601 15.7917 11.3625 15.7917 12.4167C15.7917 13.4708 15.4164 14.3733 14.6657 15.1239C13.915 15.8746 13.0125 16.25 11.9584 16.25C10.9042 16.25 10.0018 15.8746 9.25108 15.1239C8.50039 14.3733 8.12504 13.4708 8.12504 12.4167ZM11.9584 45L3.33337 36.375L6.20837 32.5417L3.33337 28.7083L6.20837 24.6354V22.3833C4.48337 21.3611 3.09379 19.9795 2.03962 18.2385C0.985457 16.4976 0.458374 14.5569 0.458374 12.4167C0.458374 9.22221 1.57643 6.50693 3.81254 4.27082C6.04865 2.03471 8.76393 0.916656 11.9584 0.916656C15.1528 0.916656 17.8681 2.03471 20.1042 4.27082C22.3403 6.50693 23.4584 9.22221 23.4584 12.4167C23.4584 14.5569 22.9313 16.4976 21.8771 18.2385C20.823 19.9795 19.4334 21.3611 17.7084 22.3833V39.25L11.9584 45ZM4.29171 12.4167C4.29171 14.2055 4.83476 15.7788 5.92087 17.1364C7.00698 18.4941 8.3806 19.3965 10.0417 19.8437V25.8333L8.07712 28.6125L11 32.5417L8.36462 35.9437L11.9584 39.5375L13.875 37.6208V19.8437C15.5362 19.3965 16.9098 18.4941 17.9959 17.1364C19.082 15.7788 19.625 14.2055 19.625 12.4167C19.625 10.3083 18.8743 8.50346 17.373 7.00207C15.8716 5.50068 14.0667 4.74999 11.9584 4.74999C9.85004 4.74999 8.04518 5.50068 6.54379 7.00207C5.0424 8.50346 4.29171 10.3083 4.29171 12.4167Z" fill="url(#paint0_diamond_42_604)"/>
<defs>
<radialGradient id="paint0_diamond_42_604" cx="0" cy="0" r="1" gradientUnits="userSpaceOnUse" gradientTransform="translate(12.1106 37.0319) rotate(89.8256) scale(54.6818 28.5305)">
<stop stop-color="#DC9A56"/>
<stop offset="1" stop-color="#DFD2C3"/>
</radialGradient>
</defs>
</svg>
