<svg width="335" height="63" viewBox="0 0 335 63" fill="none" xmlns="http://www.w3.org/2000/svg">
<path d="M31.5314 1.74943C29.8486 3.33655 29.6714 6.59895 31.1771 8.0979C32.5057 9.42049 36.58 9.42049 37.9086 8.0979C40.3886 5.62905 38.0857 0.338663 34.5428 0.338663C33.6571 0.338663 32.24 0.955875 31.5314 1.74943Z" fill="url(#paint0_diamond_27_415)"/>
<path d="M31.8857 12.4184C31.8857 13.2119 30.38 13.5646 26.66 13.5646C20.7257 13.5646 18.6 14.0936 18.6 15.7689C18.6 17.4442 20.7257 17.9733 26.66 17.9733H31.8857V36.4896V55.006H27.9C24.4457 55.006 23.8257 55.2705 22.5857 57.6512C21.3457 60.12 20.8143 60.2964 16.3857 60.2964C13.7286 60.2964 11.5143 60.649 11.5143 61.1781C11.5143 61.7071 19.7514 62.0598 34.5428 62.0598C49.3343 62.0598 57.5714 61.7071 57.5714 61.1781C57.5714 60.649 55.4457 60.2964 52.9657 60.2964C48.7143 60.2964 48.0943 60.0318 46.7657 57.6512C45.4371 55.3587 44.8171 55.006 41.1857 55.006H37.2V36.4896V17.9733H41.8943C47.6514 17.9733 50.4857 17.1797 50.4857 15.7689C50.4857 14.4463 46.5886 13.5646 41.0971 13.5646C38.44 13.5646 37.2 13.2119 37.2 12.4184C37.2 11.713 36.1371 11.1839 34.5428 11.1839C32.9486 11.1839 31.8857 11.713 31.8857 12.4184Z" fill="url(#paint1_diamond_27_415)"/>
<path d="M10.9829 13.9172C10.0086 16.3861 11.0714 18.4141 13.1971 18.4141C16.0314 18.4141 17.5371 15.9452 16.0314 14.0936C14.5257 12.3301 11.6029 12.2419 10.9829 13.9172Z" fill="url(#paint2_diamond_27_415)"/>
<path d="M53.4971 13.9172C52.5229 16.3861 53.5857 18.4141 55.7114 18.4141C58.5457 18.4141 60.0514 15.9452 58.5457 14.0936C57.04 12.3301 54.1171 12.2419 53.4971 13.9172Z" fill="url(#paint3_diamond_27_415)"/>
<path d="M6.37722 27.3195C4.25151 31.0228 2.83436 34.2852 3.10008 34.5497C3.80865 35.2551 5.40294 33.0508 9.56579 25.7324C11.4258 22.47 12.1344 20.6184 11.3372 20.6184C10.7172 20.6184 8.50293 23.6163 6.37722 27.3195Z" fill="url(#paint4_diamond_27_415)"/>
<path d="M15.7658 23.44C16.7401 25.0272 18.6001 28.2014 19.9286 30.4939C21.2572 32.8746 22.9401 34.7262 23.6486 34.7262C24.7115 34.7262 24.6229 34.1972 23.2058 31.8165C22.2315 30.3175 20.3715 27.1433 19.0429 24.7626C17.7143 22.4701 16.0315 20.6185 15.3229 20.6185C14.2601 20.6185 14.3486 21.1475 15.7658 23.44Z" fill="url(#paint5_diamond_27_415)"/>
<path d="M48.8914 27.3195C46.7657 31.0228 45.3485 34.2852 45.6142 34.5497C46.3228 35.2551 47.9171 33.0508 52.08 25.7324C53.94 22.47 54.6485 20.6184 53.8514 20.6184C53.2314 20.6184 51.0171 23.6163 48.8914 27.3195Z" fill="url(#paint6_diamond_27_415)"/>
<path d="M58.2801 23.44C59.2543 25.0272 61.1143 28.2014 62.4429 30.4939C63.7715 32.8746 65.4543 34.7262 66.1629 34.7262C67.2258 34.7262 67.1372 34.1972 65.7201 31.8165C64.7458 30.3175 62.8858 27.1433 61.5572 24.7626C60.2286 22.4701 58.5458 20.6185 57.8372 20.6185C56.7743 20.6185 56.8629 21.1475 58.2801 23.44Z" fill="url(#paint7_diamond_27_415)"/>
<path d="M0 38.1649C0 39.5756 4.51714 44.4252 7.17428 45.7478C10.4514 47.5112 16.2971 47.4231 20.0171 45.6596C23.0286 44.2488 26.5714 40.281 26.5714 38.3412C26.5714 37.724 22.32 37.3713 13.2857 37.3713C5.75714 37.3713 0 37.724 0 38.1649Z" fill="url(#paint8_diamond_27_415)"/>
<path d="M42.5143 38.1649C42.5143 39.5756 47.0314 44.4252 49.6886 45.7478C52.9657 47.5112 58.8114 47.4231 62.5314 45.6596C65.5428 44.2488 69.0857 40.281 69.0857 38.3412C69.0857 37.724 64.8343 37.3713 55.8 37.3713C48.2714 37.3713 42.5143 37.724 42.5143 38.1649Z" fill="url(#paint9_diamond_27_415)"/>
<path d="M103.328 30.5119C102.731 30.5119 102.176 30.4159 101.664 30.2239C101.152 30.0532 100.736 29.7972 100.416 29.4559C100.096 29.1145 99.936 28.7092 99.936 28.2399C99.936 27.8132 100.043 27.4399 100.256 27.1199C100.491 26.7785 100.843 26.5972 101.312 26.5759C101.845 26.5332 102.208 26.6825 102.4 27.0239C102.613 27.3439 102.72 27.6639 102.72 27.9839C102.72 28.0692 102.709 28.1865 102.688 28.3359C102.667 28.4639 102.635 28.5812 102.592 28.6879C102.72 28.9012 102.923 29.0505 103.2 29.1359C103.477 29.1999 103.691 29.2212 103.84 29.1999C104.48 29.1785 104.949 28.8905 105.248 28.3359C105.568 27.7812 105.728 26.8532 105.728 25.5519V11.7279C105.728 11.2372 105.728 10.7572 105.728 10.2879C105.728 9.81854 105.728 9.34921 105.728 8.87988C105.195 8.90121 104.651 8.92254 104.096 8.94388C103.563 8.96521 103.019 8.98654 102.464 9.00788V7.59988H110.976V8.65588C110.272 8.65588 109.739 8.79454 109.376 9.07188C109.035 9.34921 108.8 9.73321 108.672 10.2239C108.565 10.6932 108.512 11.2265 108.512 11.8239V22.1919C108.512 25.1999 108.107 27.3439 107.296 28.6239C106.485 29.8825 105.163 30.5119 103.328 30.5119ZM124.614 30.5119C122.587 30.5119 120.849 30.1705 119.398 29.4879C117.947 28.8052 116.763 27.8985 115.846 26.7679C114.95 25.6159 114.289 24.3465 113.862 22.9599C113.435 21.5732 113.222 20.1865 113.222 18.7999C113.222 17.4559 113.446 16.1012 113.894 14.7359C114.342 13.3492 115.025 12.0799 115.942 10.9279C116.881 9.77588 118.043 8.84788 119.43 8.14388C120.838 7.43988 122.481 7.08788 124.358 7.08788C126.321 7.08788 128.017 7.43988 129.446 8.14388C130.875 8.84788 132.049 9.78654 132.966 10.9599C133.905 12.1119 134.598 13.3705 135.046 14.7359C135.515 16.1012 135.75 17.4559 135.75 18.7999C135.75 20.1225 135.526 21.4772 135.078 22.8639C134.63 24.2292 133.937 25.4985 132.998 26.6719C132.081 27.8239 130.929 28.7519 129.542 29.4559C128.155 30.1599 126.513 30.5119 124.614 30.5119ZM124.678 29.1999C126.001 29.1999 127.153 28.9225 128.134 28.3679C129.115 27.7919 129.926 27.0345 130.566 26.0959C131.227 25.1359 131.718 24.0799 132.038 22.9279C132.379 21.7545 132.55 20.5812 132.55 19.4079C132.55 18.0852 132.369 16.7732 132.006 15.4719C131.643 14.1705 131.11 12.9865 130.406 11.9199C129.702 10.8532 128.827 9.99988 127.782 9.35988C126.758 8.69854 125.585 8.36788 124.262 8.36788C122.939 8.36788 121.777 8.65588 120.774 9.23188C119.793 9.80788 118.971 10.5759 118.31 11.5359C117.67 12.4745 117.179 13.5305 116.838 14.7039C116.518 15.8559 116.358 17.0292 116.358 18.2239C116.358 19.3972 116.518 20.6239 116.838 21.9039C117.179 23.1839 117.691 24.3785 118.374 25.4879C119.057 26.5972 119.921 27.4932 120.966 28.1759C122.011 28.8585 123.249 29.1999 124.678 29.1999ZM136.558 29.9999V28.9439C137.198 28.9439 137.689 28.7732 138.03 28.4319C138.371 28.0905 138.649 27.6212 138.862 27.0239C139.097 26.4265 139.363 25.7332 139.662 24.9439L146.254 6.99188H147.022L154.158 25.1999C154.329 25.6479 154.521 26.2239 154.734 26.9279C154.947 27.6319 155.033 28.2292 154.99 28.7199C155.353 28.6985 155.715 28.6772 156.078 28.6559C156.441 28.6345 156.803 28.6132 157.166 28.5919V29.9999H149.838V28.9439C150.649 28.9225 151.182 28.7412 151.438 28.3999C151.694 28.0585 151.79 27.6532 151.726 27.1839C151.662 26.7145 151.555 26.2879 151.406 25.9039L150.286 22.8959L141.966 23.0879L140.846 26.5119C140.697 27.0239 140.558 27.4292 140.43 27.7279C140.323 28.0265 140.195 28.3572 140.046 28.7199C140.473 28.6985 140.889 28.6772 141.294 28.6559C141.721 28.6345 142.137 28.6132 142.542 28.5919V29.9999H136.558ZM142.446 21.7119H149.838L147.566 15.5999C147.331 14.9385 147.086 14.2879 146.83 13.6479C146.595 12.9865 146.361 12.3252 146.126 11.6639H146.062C145.849 12.2612 145.625 12.8585 145.39 13.4559C145.177 14.0532 144.953 14.6612 144.718 15.2799L142.446 21.7119ZM152.814 1.55188C152.515 2.42654 152.153 3.13054 151.726 3.66388C151.321 4.17588 150.883 4.54921 150.414 4.78388C149.945 5.01854 149.475 5.13588 149.006 5.13588C148.387 5.13588 147.843 5.02921 147.374 4.81588C146.905 4.58121 146.478 4.31454 146.094 4.01588C145.71 3.69588 145.347 3.42921 145.006 3.21588C144.665 2.98121 144.302 2.86388 143.918 2.86388C143.449 2.86388 143.033 3.03454 142.67 3.37588C142.329 3.71721 141.955 4.18654 141.55 4.78388L140.462 4.17588C140.825 3.23721 141.347 2.45854 142.03 1.83988C142.734 1.22121 143.417 0.90121 144.078 0.879877C144.718 0.858543 145.262 0.965209 145.71 1.19988C146.158 1.41321 146.563 1.66921 146.926 1.96788C147.289 2.26654 147.651 2.53321 148.014 2.76788C148.377 3.00254 148.771 3.11988 149.198 3.11988C149.774 3.11988 150.265 2.91721 150.67 2.51188C151.097 2.08521 151.47 1.59454 151.79 1.03988L152.814 1.55188ZM169.489 30.5119C167.462 30.5119 165.724 30.1705 164.273 29.4879C162.822 28.8052 161.638 27.8985 160.721 26.7679C159.825 25.6159 159.164 24.3465 158.737 22.9599C158.31 21.5732 158.097 20.1865 158.097 18.7999C158.097 17.4559 158.321 16.1012 158.769 14.7359C159.217 13.3492 159.9 12.0799 160.817 10.9279C161.756 9.77588 162.918 8.84788 164.305 8.14388C165.713 7.43988 167.356 7.08788 169.233 7.08788C171.196 7.08788 172.892 7.43988 174.321 8.14388C175.75 8.84788 176.924 9.78654 177.841 10.9599C178.78 12.1119 179.473 13.3705 179.921 14.7359C180.39 16.1012 180.625 17.4559 180.625 18.7999C180.625 20.1225 180.401 21.4772 179.953 22.8639C179.505 24.2292 178.812 25.4985 177.873 26.6719C176.956 27.8239 175.804 28.7519 174.417 29.4559C173.03 30.1599 171.388 30.5119 169.489 30.5119ZM169.553 29.1999C170.876 29.1999 172.028 28.9225 173.009 28.3679C173.99 27.7919 174.801 27.0345 175.441 26.0959C176.102 25.1359 176.593 24.0799 176.913 22.9279C177.254 21.7545 177.425 20.5812 177.425 19.4079C177.425 18.0852 177.244 16.7732 176.881 15.4719C176.518 14.1705 175.985 12.9865 175.281 11.9199C174.577 10.8532 173.702 9.99988 172.657 9.35988C171.633 8.69854 170.46 8.36788 169.137 8.36788C167.814 8.36788 166.652 8.65588 165.649 9.23188C164.668 9.80788 163.846 10.5759 163.185 11.5359C162.545 12.4745 162.054 13.5305 161.713 14.7039C161.393 15.8559 161.233 17.0292 161.233 18.2239C161.233 19.3972 161.393 20.6239 161.713 21.9039C162.054 23.1839 162.566 24.3785 163.249 25.4879C163.932 26.5972 164.796 27.4932 165.841 28.1759C166.886 28.8585 168.124 29.1999 169.553 29.1999ZM202.822 30.5119C200.688 30.5119 198.8 30.0639 197.158 29.1679C195.515 28.2719 194.235 26.9812 193.318 25.2959C192.4 23.6105 191.942 21.6052 191.942 19.2799C191.942 17.7652 192.166 16.2932 192.614 14.8639C193.083 13.4132 193.776 12.1012 194.694 10.9279C195.632 9.75454 196.795 8.82654 198.182 8.14388C199.59 7.43988 201.222 7.08788 203.078 7.08788C203.846 7.08788 204.624 7.16254 205.414 7.31188C206.203 7.43988 206.96 7.64254 207.686 7.91988C208.432 8.17588 209.104 8.48521 209.702 8.84788L209.574 7.31188H211.334V14.6399H210.182C210.096 13.2959 209.734 12.1652 209.094 11.2479C208.475 10.3092 207.664 9.59454 206.662 9.10388C205.659 8.61321 204.539 8.36788 203.302 8.36788C202.171 8.36788 201.104 8.62388 200.102 9.13588C199.12 9.62654 198.246 10.3305 197.478 11.2479C196.731 12.1439 196.144 13.2105 195.718 14.4479C195.291 15.6852 195.078 17.0505 195.078 18.5439C195.078 20.5492 195.44 22.3412 196.166 23.9199C196.891 25.4985 197.894 26.7359 199.174 27.6319C200.475 28.5279 201.968 28.9759 203.654 28.9759C204.23 28.9759 204.827 28.9225 205.446 28.8159C206.086 28.7092 206.715 28.5385 207.333 28.3039C207.974 28.0479 208.571 27.7385 209.126 27.3759V23.4719C209.126 22.9599 209.126 22.4479 209.126 21.9359C209.126 21.4025 209.126 20.8799 209.126 20.3679C208.763 20.3892 208.39 20.4105 208.006 20.4319C207.622 20.4532 207.248 20.4745 206.885 20.4959V19.0879H214.118V20.1439C213.52 20.1439 213.062 20.3039 212.742 20.6239C212.422 20.9225 212.198 21.2959 212.07 21.7439C211.942 22.1705 211.867 22.5972 211.846 23.0239C211.824 23.4292 211.814 23.7385 211.814 23.9519V28.8479H210.95C210.608 28.8479 210.139 28.9119 209.542 29.0399C208.944 29.1679 208.262 29.3812 207.494 29.6799C206.832 29.9359 206.064 30.1385 205.19 30.2879C204.315 30.4372 203.526 30.5119 202.822 30.5119ZM214.589 29.9999V28.9439C215.229 28.9439 215.72 28.7732 216.061 28.4319C216.403 28.0905 216.68 27.6212 216.893 27.0239C217.128 26.4265 217.395 25.7332 217.693 24.9439L224.285 6.99188H225.053L232.189 25.1999C232.36 25.6479 232.552 26.2239 232.765 26.9279C232.979 27.6319 233.064 28.2292 233.021 28.7199C233.384 28.6985 233.747 28.6772 234.109 28.6559C234.472 28.6345 234.835 28.6132 235.197 28.5919V29.9999H227.869V28.9439C228.68 28.9225 229.213 28.7412 229.469 28.3999C229.725 28.0585 229.821 27.6532 229.757 27.1839C229.693 26.7145 229.587 26.2879 229.437 25.9039L228.317 22.8959L219.997 23.0879L218.877 26.5119C218.728 27.0239 218.589 27.4292 218.461 27.7279C218.355 28.0265 218.227 28.3572 218.077 28.7199C218.504 28.6985 218.92 28.6772 219.325 28.6559C219.752 28.6345 220.168 28.6132 220.573 28.5919V29.9999H214.589ZM220.477 21.7119H227.869L225.597 15.5999C225.363 14.9385 225.117 14.2879 224.861 13.6479C224.627 12.9865 224.392 12.3252 224.157 11.6639H224.093C223.88 12.2612 223.656 12.8585 223.421 13.4559C223.208 14.0532 222.984 14.6612 222.749 15.2799L220.477 21.7119ZM236.573 29.9999V28.9439C237.383 28.9225 237.938 28.7412 238.237 28.3999C238.535 28.0372 238.695 27.5572 238.717 26.9599C238.759 26.3412 238.781 25.6372 238.781 24.8479V11.4079C238.781 10.8319 238.791 10.3412 238.812 9.93588C238.834 9.50921 238.855 9.15721 238.877 8.87988C238.493 8.90121 238.109 8.92254 237.725 8.94388C237.341 8.96521 236.957 8.98654 236.573 9.00788V7.59988C237.746 7.57854 238.919 7.56788 240.093 7.56788C241.287 7.54654 242.525 7.53588 243.805 7.53588C246.279 7.53588 248.21 7.97321 249.597 8.84788C251.005 9.72254 251.687 11.1092 251.645 13.0079C251.645 13.6905 251.442 14.3732 251.037 15.0559C250.653 15.7385 250.066 16.3465 249.277 16.8799C248.509 17.3919 247.538 17.7545 246.365 17.9679V18.0319C248.711 18.0319 250.482 18.5759 251.677 19.6639C252.871 20.7305 253.469 22.0852 253.469 23.7279C253.469 25.0292 253.138 26.1492 252.477 27.0879C251.815 28.0265 250.919 28.7519 249.789 29.2639C248.658 29.7545 247.367 29.9999 245.917 29.9999H236.573ZM241.469 28.7199C241.81 28.7412 242.215 28.7625 242.685 28.7839C243.175 28.7839 243.623 28.7839 244.029 28.7839C244.455 28.7839 244.733 28.7839 244.861 28.7839C246.503 28.7839 247.826 28.3785 248.829 27.5679C249.853 26.7359 250.365 25.5199 250.365 23.9199C250.365 22.6185 250.109 21.6052 249.597 20.8799C249.085 20.1545 248.413 19.6425 247.581 19.3439C246.749 19.0452 245.842 18.8959 244.861 18.8959C244.221 18.8959 243.634 18.9065 243.101 18.9279C242.589 18.9279 242.077 18.9492 241.565 18.9919V26.2239C241.565 26.7999 241.554 27.2905 241.533 27.6959C241.533 28.1012 241.511 28.4425 241.469 28.7199ZM241.565 17.7439L243.901 17.6799C245.117 17.6585 246.077 17.4132 246.781 16.9439C247.485 16.4532 247.986 15.8452 248.285 15.1199C248.605 14.3945 248.754 13.6372 248.733 12.8479C248.711 11.6959 248.445 10.8212 247.933 10.2239C247.442 9.62654 246.834 9.22121 246.109 9.00788C245.383 8.79454 244.669 8.68788 243.965 8.68788C243.261 8.68788 242.738 8.78388 242.397 8.97588C242.055 9.16788 241.831 9.48788 241.725 9.93588C241.618 10.3839 241.565 11.0025 241.565 11.7919V17.7439ZM256.198 29.9999V28.9439C257.008 28.9012 257.563 28.7199 257.862 28.3999C258.16 28.0585 258.32 27.5999 258.342 27.0239C258.384 26.4265 258.406 25.7545 258.406 25.0079V11.1839C258.406 10.7572 258.416 10.3519 258.438 9.96788C258.459 9.56254 258.48 9.19988 258.502 8.87988C258.118 8.90121 257.734 8.92254 257.35 8.94388C256.966 8.96521 256.582 8.98654 256.198 9.00788V7.59988C257.392 7.57854 258.598 7.55721 259.814 7.53588C261.051 7.51454 262.288 7.52521 263.526 7.56788C265.595 7.58921 267.259 7.83454 268.518 8.30388C269.798 8.75188 270.736 9.40254 271.333 10.2559C271.931 11.0879 272.23 12.1012 272.23 13.2959C272.251 14.1279 272.091 14.9812 271.75 15.8559C271.43 16.7092 270.832 17.4772 269.958 18.1599C269.104 18.8425 267.867 19.3545 266.246 19.6959C266.672 19.9945 267.046 20.3785 267.366 20.8479C267.686 21.3172 268.048 21.8612 268.454 22.4799L270.63 25.9039C270.992 26.4799 271.344 27.0025 271.686 27.4719C272.027 27.9199 272.422 28.2825 272.87 28.5599C273.318 28.8159 273.872 28.9439 274.534 28.9439V29.9999H270.502C269.883 29.4452 269.36 28.8905 268.934 28.3359C268.528 27.7812 268.102 27.1519 267.654 26.4479L265.51 23.0239C265.232 22.5759 264.912 22.0639 264.55 21.4879C264.208 20.8905 263.814 20.3892 263.366 19.9839C263.024 20.0052 262.662 20.0159 262.278 20.0159C261.915 20.0159 261.552 20.0052 261.19 19.9839V26.1919C261.19 26.7679 261.179 27.2692 261.158 27.6959C261.158 28.1012 261.136 28.4425 261.094 28.7199C261.35 28.6985 261.606 28.6879 261.862 28.6879C262.118 28.6665 262.374 28.6452 262.63 28.6239C262.886 28.6025 263.142 28.5919 263.398 28.5919V29.9999H256.198ZM263.174 18.7999C264.347 18.7572 265.371 18.5652 266.246 18.2239C267.142 17.8825 267.846 17.3385 268.358 16.5919C268.87 15.8452 269.126 14.8639 269.126 13.6479C269.126 12.8372 269.008 12.1332 268.774 11.5359C268.56 10.9172 268.219 10.4052 267.75 9.99988C267.28 9.59454 266.683 9.29588 265.958 9.10388C265.232 8.89054 264.379 8.78388 263.398 8.78388C262.608 8.78388 262.054 8.94388 261.734 9.26388C261.435 9.58388 261.264 10.0319 261.222 10.6079C261.2 11.1625 261.19 11.8239 261.19 12.5919V18.7359C261.531 18.7572 261.851 18.7785 262.15 18.7999C262.47 18.8212 262.811 18.8212 263.174 18.7999ZM283.491 8.65588C282.702 8.67721 282.147 8.85854 281.827 9.19988C281.529 9.54121 281.358 9.99988 281.315 10.5759C281.294 11.1519 281.283 11.8239 281.283 12.5919V26.1919C281.283 26.7679 281.273 27.2692 281.251 27.6959C281.251 28.1012 281.23 28.4425 281.187 28.7199C281.571 28.6985 281.955 28.6772 282.339 28.6559C282.723 28.6345 283.107 28.6132 283.491 28.5919V29.9999H276.291V28.9439C277.102 28.9012 277.657 28.7199 277.955 28.3999C278.254 28.0585 278.414 27.5999 278.435 27.0239C278.478 26.4265 278.499 25.7545 278.499 25.0079V11.1839C278.499 10.7572 278.51 10.3519 278.531 9.96788C278.553 9.56254 278.574 9.19988 278.595 8.87988C278.211 8.90121 277.827 8.92254 277.443 8.94388C277.059 8.96521 276.675 8.98654 276.291 9.00788V7.59988H283.491V8.65588ZM298.146 21.7119C298.146 20.7732 298.018 20.1012 297.762 19.6959C297.506 19.2905 297.101 19.0452 296.546 18.9599C295.991 18.8745 295.255 18.8532 294.338 18.8959L292.002 18.9919V26.3199C292.002 26.8959 291.991 27.3865 291.97 27.7919C291.97 28.1972 291.949 28.5385 291.906 28.8159L298.018 28.7199C298.957 28.6985 299.767 28.5492 300.45 28.2719C301.133 27.9732 301.666 27.4612 302.05 26.7359C302.434 26.0105 302.626 25.0185 302.626 23.7599H303.714L303.522 29.9999H287.01V28.9439C287.821 28.9012 288.375 28.7199 288.674 28.3999C288.973 28.0585 289.133 27.5999 289.154 27.0239C289.197 26.4265 289.218 25.7545 289.218 25.0079V11.1839C289.218 10.7572 289.229 10.3519 289.25 9.96788C289.271 9.56254 289.293 9.19988 289.314 8.87988C288.93 8.90121 288.546 8.92254 288.162 8.94388C287.778 8.96521 287.394 8.98654 287.01 9.00788V7.59988H302.402L302.562 13.1999H301.506C301.506 11.9412 301.314 10.9919 300.93 10.3519C300.546 9.69054 300.023 9.25321 299.362 9.03988C298.722 8.80521 297.997 8.69854 297.186 8.71988L294.434 8.78388C293.645 8.80521 293.079 8.95454 292.738 9.23188C292.397 9.50921 292.183 9.92521 292.098 10.4799C292.034 11.0132 292.002 11.7172 292.002 12.5919V17.7119L298.018 17.7439L297.794 14.9919H299.202V21.7119H298.146ZM306.916 29.9999V28.9439C307.727 28.9012 308.282 28.7199 308.58 28.3999C308.879 28.0585 309.039 27.5999 309.06 27.0239C309.103 26.4265 309.124 25.7545 309.124 25.0079V11.1839C309.124 10.7572 309.135 10.3519 309.156 9.96788C309.178 9.56254 309.199 9.19988 309.22 8.87988C308.836 8.90121 308.452 8.92254 308.068 8.94388C307.684 8.96521 307.3 8.98654 306.916 9.00788V7.59988H314.116V8.65588C313.327 8.67721 312.772 8.85854 312.452 9.19988C312.154 9.54121 311.983 9.99988 311.94 10.5759C311.919 11.1519 311.908 11.8239 311.908 12.5919V26.3199C311.908 26.8959 311.898 27.3865 311.876 27.7919C311.876 28.1972 311.855 28.5385 311.812 28.8159L317.796 28.7199C319.14 28.6985 320.154 28.2719 320.836 27.4399C321.54 26.6079 321.892 25.2532 321.892 23.3759H322.98L322.788 29.9999H306.916Z" fill="white"/>
<path d="M99.88 55.9999V55.3399C100.28 55.3399 100.587 55.2332 100.8 55.0199C101.013 54.8065 101.187 54.5132 101.32 54.1399C101.467 53.7665 101.633 53.3332 101.82 52.8399L105.94 41.6199H106.42L110.88 52.9999C110.987 53.2799 111.107 53.6399 111.24 54.0799C111.373 54.5199 111.427 54.8932 111.4 55.1999C111.627 55.1865 111.853 55.1732 112.08 55.1599C112.307 55.1465 112.533 55.1332 112.76 55.1199V55.9999H108.18V55.3399C108.687 55.3265 109.02 55.2132 109.18 54.9999C109.34 54.7865 109.4 54.5332 109.36 54.2399C109.32 53.9465 109.253 53.6799 109.16 53.4399L108.46 51.5599L103.26 51.6799L102.56 53.8199C102.467 54.1399 102.38 54.3932 102.3 54.5799C102.233 54.7665 102.153 54.9732 102.06 55.1999C102.327 55.1865 102.587 55.1732 102.84 55.1599C103.107 55.1465 103.367 55.1332 103.62 55.1199V55.9999H99.88ZM103.56 50.8199H108.18L106.76 46.9999C106.613 46.5865 106.46 46.1799 106.3 45.7799C106.153 45.3665 106.007 44.9532 105.86 44.5399H105.82C105.687 44.9132 105.547 45.2865 105.4 45.6599C105.267 46.0332 105.127 46.4132 104.98 46.7999L103.56 50.8199ZM113.62 55.3399C114.126 55.3132 114.473 55.1999 114.66 54.9999C114.846 54.7865 114.946 54.4999 114.96 54.1399C114.986 53.7665 115 53.3465 115 52.8799V44.2399C115 43.9732 115.006 43.7199 115.02 43.4799C115.033 43.2265 115.046 42.9999 115.06 42.7999C114.82 42.8132 114.58 42.8265 114.34 42.8399C114.1 42.8532 113.86 42.8665 113.62 42.8799V41.9999L118.34 41.9799C119.54 41.9799 120.64 42.1199 121.64 42.3999C122.64 42.6799 123.5 43.1132 124.22 43.6999C124.953 44.2732 125.513 45.0065 125.9 45.8999C126.3 46.7799 126.5 47.8199 126.5 49.0199C126.5 49.9399 126.34 50.8199 126.02 51.6599C125.7 52.4999 125.22 53.2465 124.58 53.8999C123.94 54.5399 123.14 55.0532 122.18 55.4399C121.233 55.8132 120.133 55.9999 118.88 55.9999H113.62V55.3399ZM116.74 53.6399C116.74 53.9999 116.733 54.3065 116.72 54.5599C116.72 54.8132 116.706 55.0265 116.68 55.1999C117.04 55.2132 117.366 55.2265 117.66 55.2399C117.966 55.2399 118.22 55.2399 118.42 55.2399C118.633 55.2399 118.766 55.2399 118.82 55.2399C119.686 55.2399 120.466 55.0799 121.16 54.7599C121.866 54.4399 122.466 53.9999 122.96 53.4399C123.466 52.8665 123.853 52.1999 124.12 51.4399C124.4 50.6665 124.54 49.8332 124.54 48.9399C124.54 47.6732 124.306 46.5799 123.84 45.6599C123.386 44.7265 122.686 44.0065 121.74 43.4999C120.793 42.9799 119.586 42.7199 118.12 42.7199C117.626 42.7199 117.28 42.8199 117.08 43.0199C116.893 43.2199 116.786 43.4999 116.76 43.8599C116.746 44.2199 116.74 44.6399 116.74 45.1199V53.6399ZM133.608 56.1999L129.068 45.5599C128.775 44.8799 128.568 44.3332 128.448 43.9199C128.328 43.4932 128.248 43.1332 128.208 42.8399C128.021 42.8532 127.835 42.8599 127.648 42.8599C127.461 42.8599 127.275 42.8665 127.088 42.8799V41.9999H131.728L131.708 42.6799C131.041 42.7199 130.641 42.9265 130.508 43.2999C130.375 43.6599 130.441 44.1732 130.708 44.8399C131.028 45.6265 131.335 46.3865 131.628 47.1199C131.921 47.8532 132.248 48.6465 132.608 49.4999C132.928 50.2465 133.235 50.9665 133.528 51.6599C133.835 52.3399 134.068 52.9065 134.228 53.3599H134.268C134.415 52.8932 134.561 52.4465 134.708 52.0199C134.868 51.5932 135.055 51.0865 135.268 50.4999C135.668 49.3799 136.001 48.4332 136.268 47.6599C136.548 46.8865 136.788 46.2265 136.988 45.6799C137.188 45.1332 137.355 44.6665 137.488 44.2799C137.608 43.9332 137.715 43.6399 137.808 43.3999C137.901 43.1599 137.988 42.9599 138.068 42.7999C137.815 42.8132 137.561 42.8265 137.308 42.8399C137.055 42.8532 136.795 42.8665 136.528 42.8799V41.9999H140.588V42.6599C140.001 42.6865 139.548 42.8399 139.228 43.1199C138.921 43.3999 138.641 43.8999 138.388 44.6199C138.361 44.6865 138.328 44.7799 138.288 44.8999C138.248 45.0065 138.181 45.1865 138.088 45.4399C137.995 45.6932 137.861 46.0665 137.688 46.5599C137.515 47.0399 137.275 47.6932 136.968 48.5199C136.675 49.3465 136.295 50.3865 135.828 51.6399C135.375 52.8932 134.821 54.4132 134.168 56.1999H133.608ZM147.981 56.3199C146.715 56.3199 145.628 56.1065 144.721 55.6799C143.815 55.2532 143.075 54.6865 142.501 53.9799C141.941 53.2599 141.528 52.4665 141.261 51.5999C140.995 50.7332 140.861 49.8665 140.861 48.9999C140.861 48.1599 141.001 47.3132 141.281 46.4599C141.561 45.5932 141.988 44.7999 142.561 44.0799C143.148 43.3599 143.875 42.7799 144.741 42.3399C145.621 41.8999 146.648 41.6799 147.821 41.6799C149.048 41.6799 150.108 41.8999 151.001 42.3399C151.895 42.7799 152.628 43.3665 153.201 44.0999C153.788 44.8199 154.221 45.6065 154.501 46.4599C154.795 47.3132 154.941 48.1599 154.941 48.9999C154.941 49.8265 154.801 50.6732 154.521 51.5399C154.241 52.3932 153.808 53.1865 153.221 53.9199C152.648 54.6399 151.928 55.2199 151.061 55.6599C150.195 56.0999 149.168 56.3199 147.981 56.3199ZM148.021 55.4999C148.848 55.4999 149.568 55.3265 150.181 54.9799C150.795 54.6199 151.301 54.1465 151.701 53.5599C152.115 52.9599 152.421 52.2999 152.621 51.5799C152.835 50.8465 152.941 50.1132 152.941 49.3799C152.941 48.5532 152.828 47.7332 152.601 46.9199C152.375 46.1065 152.041 45.3665 151.601 44.6999C151.161 44.0332 150.615 43.4999 149.961 43.0999C149.321 42.6865 148.588 42.4799 147.761 42.4799C146.935 42.4799 146.208 42.6599 145.581 43.0199C144.968 43.3799 144.455 43.8599 144.041 44.4599C143.641 45.0465 143.335 45.7065 143.121 46.4399C142.921 47.1599 142.821 47.8932 142.821 48.6399C142.821 49.3732 142.921 50.1399 143.121 50.9399C143.335 51.7399 143.655 52.4865 144.081 53.1799C144.508 53.8732 145.048 54.4332 145.701 54.8599C146.355 55.2865 147.128 55.4999 148.021 55.4999ZM162.026 56.1999L157.486 45.5599C157.193 44.8799 156.986 44.3332 156.866 43.9199C156.746 43.4932 156.666 43.1332 156.626 42.8399C156.439 42.8532 156.253 42.8599 156.066 42.8599C155.879 42.8599 155.693 42.8665 155.506 42.8799V41.9999H160.146L160.126 42.6799C159.459 42.7199 159.059 42.9265 158.926 43.2999C158.793 43.6599 158.859 44.1732 159.126 44.8399C159.446 45.6265 159.753 46.3865 160.046 47.1199C160.339 47.8532 160.666 48.6465 161.026 49.4999C161.346 50.2465 161.653 50.9665 161.946 51.6599C162.253 52.3399 162.486 52.9065 162.646 53.3599H162.686C162.833 52.8932 162.979 52.4465 163.126 52.0199C163.286 51.5932 163.473 51.0865 163.686 50.4999C164.086 49.3799 164.419 48.4332 164.686 47.6599C164.966 46.8865 165.206 46.2265 165.406 45.6799C165.606 45.1332 165.773 44.6665 165.906 44.2799C166.026 43.9332 166.133 43.6399 166.226 43.3999C166.319 43.1599 166.406 42.9599 166.486 42.7999C166.233 42.8132 165.979 42.8265 165.726 42.8399C165.473 42.8532 165.213 42.8665 164.946 42.8799V41.9999H169.006V42.6599C168.419 42.6865 167.966 42.8399 167.646 43.1199C167.339 43.3999 167.059 43.8999 166.806 44.6199C166.779 44.6865 166.746 44.7799 166.706 44.8999C166.666 45.0065 166.599 45.1865 166.506 45.4399C166.413 45.6932 166.279 46.0665 166.106 46.5599C165.933 47.0399 165.693 47.6932 165.386 48.5199C165.093 49.3465 164.713 50.3865 164.246 51.6399C163.793 52.8932 163.239 54.4132 162.586 56.1999H162.026ZM167.653 55.9999V55.3399C168.053 55.3399 168.36 55.2332 168.573 55.0199C168.787 54.8065 168.96 54.5132 169.093 54.1399C169.24 53.7665 169.407 53.3332 169.593 52.8399L173.713 41.6199H174.193L178.653 52.9999C178.76 53.2799 178.88 53.6399 179.013 54.0799C179.147 54.5199 179.2 54.8932 179.173 55.1999C179.4 55.1865 179.627 55.1732 179.853 55.1599C180.08 55.1465 180.307 55.1332 180.533 55.1199V55.9999H175.953V55.3399C176.46 55.3265 176.793 55.2132 176.953 54.9999C177.113 54.7865 177.173 54.5332 177.133 54.2399C177.093 53.9465 177.027 53.6799 176.933 53.4399L176.233 51.5599L171.033 51.6799L170.333 53.8199C170.24 54.1399 170.153 54.3932 170.073 54.5799C170.007 54.7665 169.927 54.9732 169.833 55.1999C170.1 55.1865 170.36 55.1732 170.613 55.1599C170.88 55.1465 171.14 55.1332 171.393 55.1199V55.9999H167.653ZM171.333 50.8199H175.953L174.533 46.9999C174.387 46.5865 174.233 46.1799 174.073 45.7799C173.927 45.3665 173.78 44.9532 173.633 44.5399H173.593C173.46 44.9132 173.32 45.2865 173.173 45.6599C173.04 46.0332 172.9 46.4132 172.753 46.7999L171.333 50.8199ZM192.355 46.4599C192.222 45.2065 191.782 44.2332 191.035 43.5399C190.302 42.8465 189.355 42.4999 188.195 42.4999C187.489 42.4999 186.822 42.6532 186.195 42.9599C185.582 43.2532 185.042 43.6799 184.575 44.2399C184.109 44.7999 183.742 45.4732 183.475 46.2599C183.209 47.0465 183.075 47.9332 183.075 48.9199C183.075 50.1732 183.315 51.2799 183.795 52.2399C184.275 53.1999 184.922 53.9465 185.735 54.4799C186.549 55.0132 187.449 55.2799 188.435 55.2799C189.302 55.2799 190.155 55.0865 190.995 54.6999C191.835 54.2999 192.522 53.7265 193.055 52.9799L193.575 53.3999C193.002 54.1865 192.382 54.7932 191.715 55.2199C191.049 55.6465 190.382 55.9332 189.715 56.0799C189.062 56.2399 188.462 56.3199 187.915 56.3199C186.915 56.3199 185.995 56.1399 185.155 55.7799C184.329 55.4199 183.609 54.9199 182.995 54.2799C182.395 53.6265 181.929 52.8732 181.595 52.0199C181.275 51.1532 181.115 50.2199 181.115 49.2199C181.115 48.2732 181.255 47.3532 181.535 46.4599C181.829 45.5665 182.262 44.7599 182.835 44.0399C183.409 43.3199 184.129 42.7465 184.995 42.3199C185.875 41.8932 186.895 41.6799 188.055 41.6799C188.802 41.6799 189.509 41.7799 190.175 41.9799C190.842 42.1799 191.482 42.4865 192.095 42.8999L191.995 41.8199H193.075V46.4599H192.355ZM199.78 42.6599C199.286 42.6732 198.94 42.7865 198.74 42.9999C198.553 43.2132 198.446 43.4999 198.42 43.8599C198.406 44.2199 198.4 44.6399 198.4 45.1199V53.6199C198.4 53.9799 198.393 54.2932 198.38 54.5599C198.38 54.8132 198.366 55.0265 198.34 55.1999C198.58 55.1865 198.82 55.1732 199.06 55.1599C199.3 55.1465 199.54 55.1332 199.78 55.1199V55.9999H195.28V55.3399C195.786 55.3132 196.133 55.1999 196.32 54.9999C196.506 54.7865 196.606 54.4999 196.62 54.1399C196.646 53.7665 196.66 53.3465 196.66 52.8799V44.2399C196.66 43.9732 196.666 43.7199 196.68 43.4799C196.693 43.2265 196.706 42.9999 196.72 42.7999C196.48 42.8132 196.24 42.8265 196 42.8399C195.76 42.8532 195.52 42.8665 195.28 42.8799V41.9999H199.78V42.6599ZM200.759 55.9999V55.3399C201.159 55.3399 201.466 55.2332 201.679 55.0199C201.892 54.8065 202.066 54.5132 202.199 54.1399C202.346 53.7665 202.512 53.3332 202.699 52.8399L206.819 41.6199H207.299L211.759 52.9999C211.866 53.2799 211.986 53.6399 212.119 54.0799C212.252 54.5199 212.306 54.8932 212.279 55.1999C212.506 55.1865 212.732 55.1732 212.959 55.1599C213.186 55.1465 213.412 55.1332 213.639 55.1199V55.9999H209.059V55.3399C209.566 55.3265 209.899 55.2132 210.059 54.9999C210.219 54.7865 210.279 54.5332 210.239 54.2399C210.199 53.9465 210.132 53.6799 210.039 53.4399L209.339 51.5599L204.139 51.6799L203.439 53.8199C203.346 54.1399 203.259 54.3932 203.179 54.5799C203.112 54.7665 203.032 54.9732 202.939 55.1999C203.206 55.1865 203.466 55.1732 203.719 55.1599C203.986 55.1465 204.246 55.1332 204.499 55.1199V55.9999H200.759ZM204.439 50.8199H209.059L207.639 46.9999C207.492 46.5865 207.339 46.1799 207.179 45.7799C207.032 45.3665 206.886 44.9532 206.739 44.5399H206.699C206.566 44.9132 206.426 45.2865 206.279 45.6599C206.146 46.0332 206.006 46.4132 205.859 46.7999L204.439 50.8199ZM230.812 46.4599C230.679 45.2065 230.239 44.2332 229.492 43.5399C228.759 42.8465 227.812 42.4999 226.652 42.4999C225.946 42.4999 225.279 42.6532 224.652 42.9599C224.039 43.2532 223.499 43.6799 223.032 44.2399C222.566 44.7999 222.199 45.4732 221.932 46.2599C221.666 47.0465 221.532 47.9332 221.532 48.9199C221.532 50.1732 221.772 51.2799 222.252 52.2399C222.732 53.1999 223.379 53.9465 224.192 54.4799C225.006 55.0132 225.906 55.2799 226.892 55.2799C227.759 55.2799 228.612 55.0865 229.452 54.6999C230.292 54.2999 230.979 53.7265 231.512 52.9799L232.032 53.3999C231.459 54.1865 230.839 54.7932 230.172 55.2199C229.506 55.6465 228.839 55.9332 228.172 56.0799C227.519 56.2399 226.919 56.3199 226.372 56.3199C225.372 56.3199 224.452 56.1399 223.612 55.7799C222.786 55.4199 222.066 54.9199 221.452 54.2799C220.852 53.6265 220.386 52.8732 220.052 52.0199C219.732 51.1532 219.572 50.2199 219.572 49.2199C219.572 48.2732 219.712 47.3532 219.992 46.4599C220.286 45.5665 220.719 44.7599 221.292 44.0399C221.866 43.3199 222.586 42.7465 223.452 42.3199C224.332 41.8932 225.352 41.6799 226.512 41.6799C227.259 41.6799 227.966 41.7799 228.632 41.9799C229.299 42.1799 229.939 42.4865 230.552 42.8999L230.452 41.8199H231.532V46.4599H230.812ZM238.237 42.6599C237.743 42.6732 237.397 42.7865 237.197 42.9999C237.01 43.2132 236.903 43.4999 236.877 43.8599C236.863 44.2199 236.857 44.6399 236.857 45.1199V53.6199C236.857 53.9799 236.85 54.2932 236.837 54.5599C236.837 54.8132 236.823 55.0265 236.797 55.1999C237.037 55.1865 237.277 55.1732 237.517 55.1599C237.757 55.1465 237.997 55.1332 238.237 55.1199V55.9999H233.737V55.3399C234.243 55.3132 234.59 55.1999 234.777 54.9999C234.963 54.7865 235.063 54.4999 235.077 54.1399C235.103 53.7665 235.117 53.3465 235.117 52.8799V44.2399C235.117 43.9732 235.123 43.7199 235.137 43.4799C235.15 43.2265 235.163 42.9999 235.177 42.7999C234.937 42.8132 234.697 42.8265 234.457 42.8399C234.217 42.8532 233.977 42.8665 233.737 42.8799V41.9999H238.237V42.6599ZM245.776 56.1999L241.236 45.5599C240.943 44.8799 240.736 44.3332 240.616 43.9199C240.496 43.4932 240.416 43.1332 240.376 42.8399C240.189 42.8532 240.003 42.8599 239.816 42.8599C239.629 42.8599 239.443 42.8665 239.256 42.8799V41.9999H243.896L243.876 42.6799C243.209 42.7199 242.809 42.9265 242.676 43.2999C242.543 43.6599 242.609 44.1732 242.876 44.8399C243.196 45.6265 243.503 46.3865 243.796 47.1199C244.089 47.8532 244.416 48.6465 244.776 49.4999C245.096 50.2465 245.403 50.9665 245.696 51.6599C246.003 52.3399 246.236 52.9065 246.396 53.3599H246.436C246.583 52.8932 246.729 52.4465 246.876 52.0199C247.036 51.5932 247.223 51.0865 247.436 50.4999C247.836 49.3799 248.169 48.4332 248.436 47.6599C248.716 46.8865 248.956 46.2265 249.156 45.6799C249.356 45.1332 249.523 44.6665 249.656 44.2799C249.776 43.9332 249.883 43.6399 249.976 43.3999C250.069 43.1599 250.156 42.9599 250.236 42.7999C249.983 42.8132 249.729 42.8265 249.476 42.8399C249.223 42.8532 248.963 42.8665 248.696 42.8799V41.9999H252.756V42.6599C252.169 42.6865 251.716 42.8399 251.396 43.1199C251.089 43.3999 250.809 43.8999 250.556 44.6199C250.529 44.6865 250.496 44.7799 250.456 44.8999C250.416 45.0065 250.349 45.1865 250.256 45.4399C250.163 45.6932 250.029 46.0665 249.856 46.5599C249.683 47.0399 249.443 47.6932 249.136 48.5199C248.843 49.3465 248.463 50.3865 247.996 51.6399C247.543 52.8932 246.989 54.4132 246.336 56.1999H245.776ZM258.002 42.6599C257.509 42.6732 257.162 42.7865 256.962 42.9999C256.776 43.2132 256.669 43.4999 256.642 43.8599C256.629 44.2199 256.622 44.6399 256.622 45.1199V53.6199C256.622 53.9799 256.616 54.2932 256.602 54.5599C256.602 54.8132 256.589 55.0265 256.562 55.1999C256.802 55.1865 257.042 55.1732 257.282 55.1599C257.522 55.1465 257.762 55.1332 258.002 55.1199V55.9999H253.502V55.3399C254.009 55.3132 254.356 55.1999 254.542 54.9999C254.729 54.7865 254.829 54.4999 254.842 54.1399C254.869 53.7665 254.882 53.3465 254.882 52.8799V44.2399C254.882 43.9732 254.889 43.7199 254.902 43.4799C254.916 43.2265 254.929 42.9999 254.942 42.7999C254.702 42.8132 254.462 42.8265 254.222 42.8399C253.982 42.8532 253.742 42.8665 253.502 42.8799V41.9999H258.002V42.6599ZM260.202 55.9999V55.3399C260.708 55.3132 261.055 55.1999 261.242 54.9999C261.428 54.7865 261.528 54.4999 261.542 54.1399C261.568 53.7665 261.582 53.3465 261.582 52.8799V44.2399C261.582 43.9732 261.588 43.7199 261.602 43.4799C261.615 43.2265 261.628 42.9999 261.642 42.7999C261.402 42.8132 261.162 42.8265 260.922 42.8399C260.682 42.8532 260.442 42.8665 260.202 42.8799V41.9999H264.702V42.6599C264.208 42.6732 263.862 42.7865 263.662 42.9999C263.475 43.2132 263.368 43.4999 263.342 43.8599C263.328 44.2199 263.322 44.6399 263.322 45.1199V53.6999C263.322 54.0599 263.315 54.3665 263.302 54.6199C263.302 54.8732 263.288 55.0865 263.262 55.2599L267.002 55.1999C267.842 55.1865 268.475 54.9199 268.902 54.3999C269.342 53.8799 269.562 53.0332 269.562 51.8599H270.242L270.122 55.9999H260.202Z" fill="white"/>
<rect x="86" y="31.9999" width="1" height="25" fill="white"/>
<defs>
<radialGradient id="paint0_diamond_27_415" cx="0" cy="0" r="1" gradientUnits="userSpaceOnUse" gradientTransform="translate(34.6063 1.92044) rotate(-89.664) scale(10.8553 10.9104)">
<stop stop-color="#DC9A56"/>
<stop offset="1" stop-color="#DFD2C3"/>
</radialGradient>
<radialGradient id="paint1_diamond_27_415" cx="0" cy="0" r="1" gradientUnits="userSpaceOnUse" gradientTransform="translate(34.8476 20.3797) rotate(-89.6974) scale(63.108 57.1313)">
<stop stop-color="#DC9A56"/>
<stop offset="1" stop-color="#DFD2C3"/>
</radialGradient>
<radialGradient id="paint2_diamond_27_415" cx="0" cy="0" r="1" gradientUnits="userSpaceOnUse" gradientTransform="translate(13.6619 13.7443) rotate(-89.6477) scale(7.0706 7.45108)">
<stop stop-color="#DC9A56"/>
<stop offset="1" stop-color="#DFD2C3"/>
</radialGradient>
<radialGradient id="paint3_diamond_27_415" cx="0" cy="0" r="1" gradientUnits="userSpaceOnUse" gradientTransform="translate(56.1762 13.7443) rotate(-89.6477) scale(7.0706 7.45108)">
<stop stop-color="#DC9A56"/>
<stop offset="1" stop-color="#DFD2C3"/>
</radialGradient>
<radialGradient id="paint4_diamond_27_415" cx="0" cy="0" r="1" gradientUnits="userSpaceOnUse" gradientTransform="translate(7.42123 23.159) rotate(-89.7956) scale(17.4353 10.6586)">
<stop stop-color="#DC9A56"/>
<stop offset="1" stop-color="#DFD2C3"/>
</radialGradient>
<radialGradient id="paint5_diamond_27_415" cx="0" cy="0" r="1" gradientUnits="userSpaceOnUse" gradientTransform="translate(19.5504 23.1685) rotate(-89.7686) scale(17.4995 12.1121)">
<stop stop-color="#DC9A56"/>
<stop offset="1" stop-color="#DFD2C3"/>
</radialGradient>
<radialGradient id="paint6_diamond_27_415" cx="0" cy="0" r="1" gradientUnits="userSpaceOnUse" gradientTransform="translate(49.9354 23.159) rotate(-89.7956) scale(17.4353 10.6586)">
<stop stop-color="#DC9A56"/>
<stop offset="1" stop-color="#DFD2C3"/>
</radialGradient>
<radialGradient id="paint7_diamond_27_415" cx="0" cy="0" r="1" gradientUnits="userSpaceOnUse" gradientTransform="translate(62.0647 23.1685) rotate(-89.7686) scale(17.4995 12.1121)">
<stop stop-color="#DC9A56"/>
<stop offset="1" stop-color="#DFD2C3"/>
</radialGradient>
<radialGradient id="paint8_diamond_27_415" cx="0" cy="0" r="1" gradientUnits="userSpaceOnUse" gradientTransform="translate(13.4615 39.1166) rotate(-89.0801) scale(11.9787 32.9566)">
<stop stop-color="#DC9A56"/>
<stop offset="1" stop-color="#DFD2C3"/>
</radialGradient>
<radialGradient id="paint9_diamond_27_415" cx="0" cy="0" r="1" gradientUnits="userSpaceOnUse" gradientTransform="translate(55.9758 39.1166) rotate(-89.0801) scale(11.9787 32.9566)">
<stop stop-color="#DC9A56"/>
<stop offset="1" stop-color="#DFD2C3"/>
</radialGradient>
</defs>
</svg>
